<svg width="38" height="38" viewBox="0 0 38 38" fill="none" xmlns="http://www.w3.org/2000/svg">
<g id="menu">
<path id="Vector" d="M32.0627 11.0854H5.93774C5.28191 11.0854 4.75024 11.6171 4.75024 12.2729C4.75024 12.9288 5.28191 13.4604 5.93774 13.4604H32.0627C32.7186 13.4604 33.2502 12.9288 33.2502 12.2729C33.2502 11.6171 32.7186 11.0854 32.0627 11.0854Z" fill="#013A71"/>
<path id="Vector_2" d="M27.3123 17.8149H5.93726C5.28142 17.8149 4.74976 18.3466 4.74976 19.0024C4.74976 19.6583 5.28142 20.1899 5.93726 20.1899H27.3123C27.9681 20.1899 28.4998 19.6583 28.4998 19.0024C28.4998 18.3466 27.9681 17.8149 27.3123 17.8149Z" fill="#013A71"/>
<path id="Vector_3" d="M32.0623 24.5396H5.93726C5.28142 24.5396 4.74976 25.0712 4.74976 25.7271C4.74976 26.3829 5.28142 26.9146 5.93726 26.9146H32.0623C32.7181 26.9146 33.2498 26.3829 33.2498 25.7271C33.2498 25.0712 32.7181 24.5396 32.0623 24.5396Z" fill="#013A71"/>
</g>
</svg>
